<svg xmlns="http://www.w3.org/2000/svg" width="256" height="192" viewBox="0 0 256 192"><g stroke="#f3d1a0" stroke-width="2" stroke-linejoin="round"><path d="M125 92 Q67 11 17 39 Q14 114 110 109 Q46 120 62 159 Q108 164 128 109 Q146 164 195 157 Q206 121 146 109 Q240 116 239 39 Q185 11 131 92" fill="#283f4a"/><path d="M119 98 L33 51 L94 99 M138 98 L223 51 L162 99 M120 112 L76 147 M136 112 L180 147" fill="none"/><path d="M123 118 L127 77 L132 77 L135 118 Z" fill="#f3d1a0"/><path d="M128 79 L115 59 M131 79 L144 59" fill="none"/><circle cx="70" cy="74" r="9" fill="#ce9063"/><circle cx="187" cy="74" r="9" fill="#ce9063"/></g></svg>
